<?xml version="1.0" standalone="no"?>
<!DOCTYPE svg PUBLIC "-//W3C//DTD SVG 20010904//EN"
 "http://www.w3.org/TR/2001/REC-SVG-20010904/DTD/svg10.dtd">
<svg version="1.0" xmlns="http://www.w3.org/2000/svg"
 width="96.000000pt" height="96.000000pt" viewBox="0 0 96.000000 96.000000"
 preserveAspectRatio="xMidYMid meet">
<metadata>
Created by potrace 1.14, written by Peter Selinger 2001-2017
</metadata>
<g transform="translate(0.000000,96.000000) scale(0.100000,-0.100000)"
fill="#000000" stroke="none">
<path d="M80 666 c0 -88 3 -107 20 -129 18 -23 20 -40 20 -209 0 -198 2 -208
52 -208 37 0 48 24 48 102 l0 64 59 -57 c123 -120 279 -120 402 0 l59 57 0
-64 c0 -78 11 -102 48 -102 48 0 52 13 52 157 0 133 0 133 25 145 25 11 25 13
25 132 0 102 -3 126 -20 153 -22 37 -71 66 -103 61 -21 -3 -22 -9 -25 -102
l-3 -100 -24 37 c-28 40 -93 88 -144 105 -43 15 -138 15 -182 1 -19 -7 -55
-27 -81 -45 l-48 -34 0 70 0 70 -90 0 -90 0 0 -104z m50 9 c0 -51 3 -65 15
-65 12 0 15 14 15 65 0 37 4 65 10 65 6 0 10 -29 10 -66 0 -88 23 -83 31 7 5
62 6 61 7 -27 2 -70 -1 -94 -13 -104 -12 -10 -15 -49 -17 -203 -3 -173 -5
-192 -20 -195 -17 -3 -18 11 -18 187 0 178 -1 192 -20 211 -17 17 -20 33 -20
105 0 50 4 85 10 85 6 0 10 -28 10 -65z m705 23 c23 -27 25 -37 25 -137 0
-105 -1 -108 -25 -119 -25 -12 -25 -12 -25 -153 0 -128 -2 -140 -17 -137 -17
3 -18 26 -21 295 -2 288 -2 291 18 286 11 -3 31 -19 45 -35z m-273 -20 c50
-15 123 -79 149 -130 70 -138 -6 -319 -152 -362 -66 -20 -92 -20 -158 0 -146
43 -222 224 -152 362 25 48 98 115 143 129 45 15 123 15 170 1z"/>
<path d="M465 591 c-7 -12 12 -24 25 -16 11 7 4 25 -10 25 -5 0 -11 -4 -15 -9z"/>
<path d="M405 581 c-7 -12 12 -24 25 -16 11 7 4 25 -10 25 -5 0 -11 -4 -15 -9z"/>
<path d="M525 581 c-7 -12 12 -24 25 -16 11 7 4 25 -10 25 -5 0 -11 -4 -15 -9z"/>
<path d="M357 554 c-8 -8 1 -24 14 -24 5 0 9 7 9 15 0 15 -12 20 -23 9z"/>
<path d="M580 545 c0 -9 5 -15 11 -13 6 2 11 8 11 13 0 5 -5 11 -11 13 -6 2
-11 -4 -11 -13z"/>
<path d="M326 503 c-11 -11 -6 -23 9 -23 8 0 15 4 15 9 0 13 -16 22 -24 14z"/>
<path d="M616 503 c-11 -11 -6 -23 9 -23 8 0 15 4 15 9 0 13 -16 22 -24 14z"/>
<path d="M316 443 c-11 -11 -6 -23 9 -23 8 0 15 4 15 9 0 13 -16 22 -24 14z"/>
<path d="M326 383 c-11 -11 -6 -23 9 -23 8 0 15 4 15 9 0 13 -16 22 -24 14z"/>
<path d="M357 334 c-8 -8 1 -24 14 -24 5 0 9 7 9 15 0 15 -12 20 -23 9z"/>
<path d="M410 285 c0 -9 5 -15 11 -13 6 2 11 8 11 13 0 5 -5 11 -11 13 -6 2
-11 -4 -11 -13z"/>
</g>
</svg>
